<?xml version="1.0" standalone="no"?><svg xmlns="http://www.w3.org/2000/svg" viewBox="0 0 1440 320"><path fill="#EBA80D" fill-opacity="1" d="M0,32L24,48C48,64,96,96,144,106.7C192,117,240,107,288,85.3C336,64,384,32,432,64C480,96,528,192,576,213.3C624,235,672,181,720,160C768,139,816,149,864,176C912,203,960,245,1008,250.7C1056,256,1104,224,1152,181.3C1200,139,1248,85,1296,53.3C1344,21,1392,11,1416,5.3L1440,0L1440,320L1416,320C1392,320,1344,320,1296,320C1248,320,1200,320,1152,320C1104,320,1056,320,1008,320C960,320,912,320,864,320C816,320,768,320,720,320C672,320,624,320,576,320C528,320,480,320,432,320C384,320,336,320,288,320C240,320,192,320,144,320C96,320,48,320,24,320L0,320Z"></path></svg>